<svg width="247" height="76" viewBox="0 0 247 76" fill="none" xmlns="http://www.w3.org/2000/svg">
<path d="M121.837 49.8022L96.0349 23.6555L87.1667 14.7505L78.6124 23.4101L51.8696 50.1529L61.5037 59.787L86.5408 34.5713L111.995 60.0253L121.837 49.8022Z" fill="#0A090B"/>
<path d="M33.8109 59.6784C30.5852 56.4528 27.3768 53.2445 24.1569 50.0248C35.9441 38.2318 47.7256 26.4501 59.5186 14.6571L69.1728 24.3113C57.3852 36.0983 45.6041 47.88 33.8109 59.673V59.6784ZM53.437 38.1796L50.3096 35.0522L49.6679 35.6939C50.714 36.74 51.7546 37.7806 52.7953 38.8213L53.437 38.1796ZM59.9811 31.6295C58.9345 30.5834 57.8998 29.5488 56.8537 28.5021L56.2121 29.1438L59.3394 32.2712L59.9811 31.6295ZM46.9048 44.7233C45.8467 43.6658 44.812 42.6305 43.7774 41.5958L43.1297 42.2435L46.2571 45.3709L46.9048 44.7233ZM36.5858 48.7583L39.719 51.8917L40.3607 51.25C40.1873 51.0768 40.0254 50.9145 39.8578 50.7473C39.0311 49.9206 38.2102 49.0998 37.3835 48.273C37.3142 48.2035 37.2506 48.0879 37.1407 48.1975C36.9615 48.3826 36.7766 48.5618 36.5858 48.7529V48.7583ZM66.5307 25.0859C66.2533 24.8085 65.9932 24.548 65.7332 24.2879C65.0047 23.5594 64.2762 22.8314 63.5477 22.1089C63.4956 22.0568 63.3685 21.9987 63.3457 22.0161C63.1432 22.1952 62.9522 22.3977 62.7556 22.5942C63.8137 23.6522 64.8484 24.6869 65.889 25.7276L66.5307 25.0859ZM63.9179 27.7047C63.4321 27.2188 62.9695 26.7509 62.5016 26.2938C62.4728 26.265 62.386 26.2596 62.3626 26.2824C62.1601 26.4675 61.9696 26.664 61.7731 26.8665L63.2703 28.3637L63.9233 27.7101L63.9179 27.7047ZM48.0203 40.6073C47.8238 40.8038 47.6333 40.9835 47.4596 41.18C47.4308 41.2088 47.4596 41.3358 47.5057 41.382C47.7315 41.6252 47.9742 41.8559 48.2055 42.0931C48.4248 42.313 48.6386 42.5268 48.8645 42.7521L49.5116 42.1045L48.0203 40.6133V40.6073ZM37.5685 51.0823L36.9153 51.7359L38.3952 53.2157L39.0484 52.5621L37.5685 51.0823ZM42.7769 45.8508C42.5923 46.0359 42.43 46.209 42.2568 46.3654C42.1472 46.4636 42.17 46.5331 42.2802 46.6368C42.563 46.9088 42.8409 47.1922 43.1183 47.4696C43.2861 47.6368 43.4592 47.8105 43.6324 47.9836L44.2741 47.342C43.7774 46.8453 43.2915 46.3594 42.7769 45.8448V45.8508ZM57.1832 31.4504C56.9867 31.6469 56.8016 31.832 56.6165 32.0171C56.5296 32.104 56.5991 32.1615 56.6686 32.231C56.9921 32.5546 57.3217 32.8841 57.6457 33.2082C57.7728 33.3352 57.8998 33.4622 58.0268 33.5892L58.6745 32.9422L57.1886 31.4564L57.1832 31.4504ZM44.1123 44.5501L43.4652 45.1977L44.945 46.6775L45.5921 46.0299L44.1123 44.5501ZM56.0557 35.5663L54.5759 34.0865L53.9342 34.7282L55.414 36.208L56.0557 35.5663ZM47.5638 44.0469L48.2055 43.4052L46.731 41.9313L46.0894 42.573L47.5638 44.0469ZM65.2072 26.4154L63.7328 24.9415L63.1025 25.5712L64.5769 27.0456L65.2072 26.4154ZM61.2872 30.3348L59.8134 28.861L59.1777 29.4966L60.6515 30.9705L61.2872 30.3348ZM57.3678 34.2483C56.8939 33.7744 56.4433 33.3178 55.9808 32.8727C55.9401 32.832 55.8244 32.8146 55.7957 32.8379C55.5992 33.0116 55.42 33.2022 55.2289 33.3987L56.7261 34.8959L57.3678 34.2542V34.2483ZM50.0088 38.6476L51.4886 40.1274L52.1249 39.4917L50.645 38.0119L50.0088 38.6476ZM41.6556 49.9667L40.1757 48.4869L39.5456 49.1171C40.0485 49.6198 40.5341 50.1057 41.0255 50.597L41.6556 49.9667ZM35.1521 56.4701L33.6722 54.9903L33.0421 55.6206L34.522 57.1004L35.1521 56.4701ZM54.7436 36.873L53.2638 35.3932L52.6276 36.0288C53.1248 36.5261 53.6107 37.012 54.1074 37.5087L54.7436 36.873ZM48.7081 39.9483L50.1825 41.4227L50.8128 40.7924L49.3384 39.3186L48.7081 39.9483ZM42.9734 48.6427L41.4937 47.1628L40.8521 47.8045L42.3317 49.2843L42.9734 48.6427ZM36.262 52.4003L35.6261 53.0366L37.1003 54.5104L37.7362 53.8747L36.262 52.4003ZM36.4297 55.1868L34.9498 53.707L34.3139 54.3427L35.7938 55.8225L36.4297 55.1868ZM62.6113 29.0168L61.1255 27.531L60.4838 28.1726L61.9696 29.6584L62.6113 29.0168Z" fill="#0A090B"/>
<path d="M132.501 18.4501H137.749L144.777 35.6054H145.055L152.084 18.4501H157.332V42.1252H153.216V25.8601H152.997L146.454 42.0557H143.379L136.836 25.8253H136.616V42.1252H132.501V18.4501Z" fill="#0A090B"/>
<path d="M162.002 42.1252V18.4501H177.4V22.0454H166.291V28.4728H176.602V32.0676H166.291V38.5298H177.493V42.1252H162.002Z" fill="#0A090B"/>
<path d="M181.775 42.1252V18.4501H190.654C192.472 18.4501 193.998 18.766 195.231 19.3979C196.472 20.0298 197.408 20.9163 198.04 22.0568C198.68 23.1898 199 24.5116 199 26.0218C199 27.5402 198.676 28.8577 198.029 29.9755C197.389 31.0851 196.445 31.9444 195.197 32.5535C193.948 33.1544 192.415 33.4552 190.595 33.4552H184.272V29.8946H190.018C191.081 29.8946 191.952 29.748 192.63 29.4554C193.308 29.1547 193.809 28.7193 194.133 28.1488C194.464 27.5712 194.63 26.8622 194.63 26.0218C194.63 25.182 194.464 24.4649 194.133 23.8716C193.802 23.2706 193.297 22.8157 192.619 22.5079C191.941 22.1914 191.066 22.0335 189.995 22.0335H186.064V42.1252H181.775ZM194.006 31.3972L199.867 42.1252H195.081L189.324 31.3972H194.006Z" fill="#0A090B"/>
<path d="M205.988 42.1252H201.41L209.745 18.4501H215.039L223.386 42.1252H218.808L212.485 23.3054H212.299L205.988 42.1252ZM206.138 32.8423H218.623V36.2873H206.138V32.8423Z" fill="#0A090B"/>
<path d="M138.816 54.4993C138.721 54.8785 138.593 55.2222 138.433 55.5304C138.274 55.8385 138.078 56.1012 137.847 56.3185C137.62 56.5358 137.352 56.7037 137.045 56.8222C136.742 56.9407 136.393 57 135.998 57C135.451 57 134.989 56.8894 134.61 56.6681C134.231 56.443 133.92 56.1447 133.676 55.7733C133.437 55.398 133.263 54.9714 133.156 54.4933C133.052 54.0114 133 53.5116 133 52.9941C133 52.4765 133.052 51.9768 133.156 51.4948C133.263 51.0128 133.435 50.5881 133.67 50.2207C133.91 49.8533 134.213 49.559 134.58 49.3378C134.947 49.1126 135.396 49 135.926 49C136.098 49 136.271 49.0217 136.447 49.0652C136.622 49.1086 136.786 49.1758 136.937 49.2667C137.089 49.3536 137.221 49.4622 137.332 49.5926C137.448 49.723 137.53 49.8731 137.578 50.043V49.1304H138.697V52.0578H137.578C137.578 51.8168 137.548 51.5798 137.488 51.3467C137.428 51.1096 137.332 50.9002 137.201 50.7185C137.069 50.5368 136.903 50.3886 136.704 50.2741C136.505 50.1595 136.269 50.1022 135.998 50.1022C135.647 50.1022 135.36 50.1872 135.136 50.357C134.913 50.5269 134.733 50.7501 134.598 51.0267C134.462 51.3032 134.366 51.6133 134.31 51.957C134.259 52.3007 134.233 52.6464 134.233 52.9941C134.233 53.3417 134.259 53.6894 134.31 54.037C134.366 54.3847 134.46 54.6968 134.592 54.9733C134.723 55.2459 134.903 55.4672 135.13 55.637C135.358 55.8069 135.647 55.8919 135.998 55.8919C136.505 55.8919 136.894 55.7319 137.165 55.4119C137.44 55.0919 137.659 54.6612 137.823 54.12L138.816 54.4993Z" fill="#0A090B"/>
<path d="M145.53 54.1081C145.53 54.5388 145.46 54.9299 145.321 55.2815C145.185 55.6331 144.988 55.9373 144.728 56.1941C144.473 56.4469 144.166 56.6444 143.807 56.7867C143.448 56.9289 143.047 57 142.604 57C142.169 57 141.772 56.9289 141.413 56.7867C141.054 56.6444 140.745 56.4469 140.486 56.1941C140.231 55.9373 140.033 55.6331 139.893 55.2815C139.758 54.9299 139.69 54.5388 139.69 54.1081C139.69 53.6894 139.758 53.3022 139.893 52.9467C140.033 52.5872 140.231 52.279 140.486 52.0222C140.745 51.7615 141.054 51.562 141.413 51.4237C141.772 51.2815 142.169 51.2104 142.604 51.2104C143.047 51.2104 143.448 51.2815 143.807 51.4237C144.166 51.562 144.473 51.7615 144.728 52.0222C144.988 52.279 145.185 52.5872 145.321 52.9467C145.46 53.3022 145.53 53.6894 145.53 54.1081ZM144.298 54.1081C144.298 53.8593 144.258 53.6242 144.178 53.403C144.102 53.1778 143.99 52.9862 143.843 52.8281C143.695 52.6701 143.516 52.5457 143.304 52.4548C143.097 52.36 142.863 52.3126 142.604 52.3126C142.341 52.3126 142.105 52.36 141.898 52.4548C141.691 52.5457 141.515 52.6701 141.371 52.8281C141.228 52.9862 141.116 53.1778 141.036 53.403C140.961 53.6242 140.923 53.8593 140.923 54.1081C140.923 54.3689 140.961 54.6059 141.036 54.8193C141.116 55.0326 141.228 55.2202 141.371 55.3822C141.515 55.5442 141.691 55.6706 141.898 55.7615C142.105 55.8484 142.341 55.8919 142.604 55.8919C142.863 55.8919 143.097 55.8484 143.304 55.7615C143.516 55.6706 143.695 55.5442 143.843 55.3822C143.99 55.2202 144.102 55.0326 144.178 54.8193C144.258 54.6059 144.298 54.3689 144.298 54.1081Z" fill="#0A090B"/>
<path d="M151.783 56.8637H150.545V56.3541C150.305 56.5635 150.064 56.7235 149.821 56.8341C149.577 56.9447 149.3 57 148.989 57C148.63 57 148.297 56.9289 147.99 56.7867C147.682 56.6444 147.417 56.4469 147.194 56.1941C146.974 55.9373 146.801 55.6311 146.673 55.2756C146.55 54.92 146.488 54.5309 146.488 54.1081C146.488 53.6894 146.55 53.3022 146.673 52.9467C146.801 52.5872 146.974 52.281 147.194 52.0281C147.417 51.7714 147.682 51.5719 147.99 51.4296C148.297 51.2835 148.63 51.2104 148.989 51.2104C149.3 51.2104 149.577 51.2637 149.821 51.3704C150.064 51.4731 150.305 51.6291 150.545 51.8385V50.2385H149.468V49.1304H151.783V56.8637ZM150.545 52.8104C150.397 52.6484 150.206 52.5259 149.97 52.443C149.739 52.356 149.518 52.3126 149.306 52.3126C148.839 52.3126 148.458 52.4785 148.163 52.8104C147.872 53.1422 147.726 53.5748 147.726 54.1081C147.726 54.6415 147.872 55.0721 148.163 55.4C148.458 55.7279 148.839 55.8919 149.306 55.8919C149.518 55.8919 149.739 55.8504 149.97 55.7674C150.206 55.6805 150.397 55.556 150.545 55.3941V52.8104Z" fill="#0A090B"/>
<path d="M154.327 54.5704C154.386 54.9496 154.568 55.2657 154.871 55.5185C155.178 55.7674 155.589 55.8919 156.104 55.8919C156.507 55.8919 156.856 55.8306 157.151 55.7081C157.45 55.5817 157.707 55.4158 157.923 55.2104L158.557 56.0756C158.198 56.4311 157.817 56.6741 157.414 56.8044C157.015 56.9348 156.579 57 156.104 57C155.673 57 155.272 56.9289 154.901 56.7867C154.53 56.6444 154.209 56.4469 153.938 56.1941C153.666 55.9373 153.453 55.6331 153.297 55.2815C153.146 54.9299 153.07 54.5388 153.07 54.1081C153.07 53.6894 153.14 53.3042 153.279 52.9526C153.423 52.597 153.622 52.2909 153.878 52.0341C154.137 51.7733 154.446 51.5719 154.805 51.4296C155.164 51.2835 155.561 51.2104 155.996 51.2104C156.447 51.2104 156.856 51.2874 157.223 51.4415C157.59 51.5916 157.903 51.8109 158.162 52.0993C158.426 52.3877 158.631 52.7412 158.779 53.16C158.926 53.5748 159 54.0449 159 54.5704H154.327ZM157.6 53.4919C157.536 53.1363 157.35 52.8519 157.043 52.6385C156.736 52.4212 156.387 52.3126 155.996 52.3126C155.605 52.3126 155.254 52.4212 154.943 52.6385C154.632 52.8519 154.444 53.1363 154.38 53.4919H157.6Z" fill="#0A090B"/>
</svg>
